<?xml version="1.0"?>
<svg xmlns="http://www.w3.org/2000/svg" xmlns:xlink="http://www.w3.org/1999/xlink" viewBox="0 0 512 512" width="512" height="512"><linearGradient id="a" gradientUnits="userSpaceOnUse" x1="115.231" x2="115.231" y1="30" y2="438.078"><stop offset="0" stop-color="#00efd1"/><stop offset="1" stop-color="#00acea"/></linearGradient><linearGradient id="b" x1="319.606" x2="319.606" xlink:href="#a" y1="30" y2="438.078"/><path d="m115.231 205.334a50.666 50.666 0 1 0 50.669 50.666 50.723 50.723 0 0 0 -50.669-50.666zm0 81.332a30.666 30.666 0 1 1 30.669-30.666 30.7 30.7 0 0 1 -30.669 30.666z" fill="url(#a)"/><path d="m437.435 246h-235.657a10 10 0 0 0 0 20h235.657a10 10 0 0 0 0-20z" fill="url(#b)"/><path d="m115.231 59.352a50.667 50.667 0 1 0 50.669 50.666 50.723 50.723 0 0 0 -50.669-50.666zm0 81.333a30.667 30.667 0 1 1 30.669-30.667 30.7 30.7 0 0 1 -30.669 30.667z" fill="url(#a)"/><path d="m437.435 100h-235.657a10 10 0 0 0 0 20h235.657a10 10 0 0 0 0-20z" fill="url(#b)"/><path d="m115.231 351.315a50.667 50.667 0 1 0 50.669 50.667 50.725 50.725 0 0 0 -50.669-50.667zm0 81.333a30.667 30.667 0 1 1 30.669-30.666 30.7 30.7 0 0 1 -30.669 30.666z" fill="url(#a)"/><path d="m437.435 392h-235.657a10 10 0 0 0 0 20h235.657a10 10 0 0 0 0-20z" fill="url(#b)"/></svg>
